. 
 
http://www.torrenting.com          :     Once & For all ;)


               www . Torrenting . Com 

(((((((((((((= Enjoy No RAR releases =))))))))))))))))))))


...................................NFO:....................................

.








































          
          
              
              
                    
                    
                    
                    
Poster:
[img]http://cf2.imgobject.com/t/p/w500/xmjvlm0C6HqDGORH1jgSdDzXq3q.jpg[/img]

IMDB Link: 
http://www.imdb.com/title/tt1869724

Description:
Based on the fifteenth best-selling children's book of all time, The Littlest Angel tells the story of a young boy who arrives in heaven before his time. Home-sick and lonely, he will travel back to earth, with his friendly pup Halo, to retrieve a most selfless and precious gift for The Baby Jesus. Experience the love, laughter and magic of one of the most popular children's stories of all time. From the classic book by Charles Tazewell comes the CGI animated film, The Littlest Angel.

General
Complete name                    : The.Littlest.Angel.2011.BRRiP.720p.x264.AC3-SiC.mkv
Format                           : Matroska
Format version                   : Version 2
File size                        : 2.00 GiB
Duration                         : 1h 23mn
Overall bit rate                 : 3 442 Kbps
Encoded date                     : UTC 2011-12-18 20:47:57
Writing application              : mkvmerge v4.8.0 ('I Got The...') built on May 24 2011 03:12:58
Writing library                  : libebml v1.2.0 + libmatroska v1.1.0

Video
ID                               : 1
Format                           : AVC
Format/Info                      : Advanced Video Codec
Format profile                   : High@L3.1
Format settings, CABAC           : Yes
Format settings, ReFrames        : 4 frames
Codec ID                         : V_MPEG4/ISO/AVC
Duration                         : 1h 23mn
Bit rate                         : 3 058 Kbps
Width                            : 1 280 pixels
Height                           : 720 pixels
Display aspect ratio             : 16:9
Frame rate mode                  : Variable
Frame rate                       : 23.976 fps
Color space                      : YUV
Chroma subsampling               : 4:2:0
Bit depth                        : 8 bits
Scan type                        : Progressive
Bits/(Pixel*Frame)               : 0.138
Stream size                      : 1.73 GiB (87%)
Writing library                  : x264 core 112
Language                         : English

Audio
ID                               : 2
Format                           : AC-3
Format/Info                      : Audio Coding 3
Mode extension                   : CM (complete main)
Codec ID                         : A_AC3
Duration                         : 1h 23mn
Bit rate mode                    : Constant
Bit rate                         : 384 Kbps
Channel(s)                       : 6 channels
Channel positions                : Front: L C R, Side: L R, LFE
Sampling rate                    : 48.0 KHz
Bit depth                        : 16 bits
Compression mode                 : Lossy
Stream size                      : 228 MiB (11%)
Language                         : English

Screenshots:
[IMG]http://img818.imageshack.us/img818/3618/vlcsnap2011121816h00m19.png[/IMG]
[IMG]http://img838.imageshack.us/img838/7592/vlcsnap2011121815h55m06.png[/IMG]
[IMG]http://img827.imageshack.us/img827/8949/vlcsnap2011121816h00m48.png[/IMG]
[IMG]http://img851.imageshack.us/img851/9638/vlcsnap2011121815h55m46.png[/IMG]
[IMG]http://img534.imageshack.us/img534/4232/vlcsnap2011121815h56m23.png[/IMG]
[IMG]http://img716.imageshack.us/img716/9971/vlcsnap2011121815h57m46.png[/IMG]
[IMG]http://img41.imageshack.us/img41/1020/vlcsnap2011121815h57m18.png[/IMG]
[IMG]http://img802.imageshack.us/img802/153/vlcsnap2011121815h58m18.png[/IMG]

Note: Normal Stuff, Came together nice :)

Source:  720p CHD - MANY THANKS :)

Enjoy!

Respects to T00NG0D, ELEKTRI4KA, PA, YeFsTe, Box, MrRep and everyone in the struggle...